<svg width="121" height="31" viewBox="0 0 121 31" fill="none" xmlns="http://www.w3.org/2000/svg">
<g filter="url(#filter0_d_1_19)">
<path d="M45.5463 7.62813H46.9279V15.6193C46.9279 16.3379 46.8329 16.9596 46.6429 17.4844C46.4529 18.0092 46.1823 18.4399 45.8312 18.7764C45.4801 19.1129 45.0569 19.3611 44.5618 19.5207C44.0667 19.6805 43.5198 19.7604 42.9211 19.7604C41.4934 19.7604 40.4168 19.4409 39.6914 18.8021C38.9662 18.1632 38.6035 17.1936 38.6035 15.893V7.62813H40.0369V15.2257C40.0369 15.8302 40.0974 16.3408 40.2182 16.7572C40.3391 17.1736 40.5205 17.5102 40.7622 17.7667C41.0041 18.0234 41.3063 18.2088 41.669 18.323C42.0316 18.437 42.4548 18.4941 42.9384 18.4941C43.871 18.4941 44.5388 18.2402 44.9417 17.7326C45.3448 17.2249 45.5463 16.3893 45.5463 15.2257V7.62813ZM54.3456 11.7691L53.413 10.0409H53.3439L53.5166 11.7691V19.6063H52.1695V7.43992H52.9294L58.7151 15.4311L59.6132 17.0738H59.6994L59.5095 15.4311V7.62813H60.8566V19.7946H60.0967L54.3456 11.7691ZM66.4266 7.62813H67.86V19.6063H66.4266V7.62813ZM76.573 15.8588L76.9875 17.6727H77.0047L77.4539 15.8247L80.3726 7.62813H81.806L77.2293 19.7946H76.5903L71.9272 7.62813H73.4989L76.573 15.8588ZM85.5451 7.62813H92.1251V8.89446H86.9786V12.813H91.6934V14.0793H86.9786V18.34H92.2115V19.6063H85.5451V7.62813ZM97.1078 7.74792C97.5454 7.66804 98.0491 7.60528 98.619 7.55964C99.189 7.51407 99.7098 7.49122 100.182 7.49122C100.712 7.49122 101.215 7.54824 101.693 7.6623C102.171 7.77636 102.591 7.96458 102.954 8.22701C103.317 8.48938 103.607 8.83169 103.826 9.25376C104.045 9.67582 104.154 10.1892 104.154 10.7938C104.154 11.7292 103.895 12.4878 103.377 13.0697C102.859 13.6514 102.203 14.0393 101.408 14.2333L102.237 14.8664L105.242 19.6063H103.567L100.234 14.4386L98.5413 14.1819V19.6063H97.1078V7.74792ZM100.216 8.72323C100.067 8.72323 99.9114 8.72323 99.7503 8.72323C99.5889 8.72323 99.4336 8.72896 99.2839 8.74035C99.1342 8.75181 98.9932 8.7632 98.8608 8.77453C98.7284 8.78599 98.6219 8.80311 98.5413 8.82596V13.2408H99.8884C100.683 13.2408 101.339 13.0468 101.857 12.6589C102.375 12.271 102.634 11.6664 102.634 10.8451C102.634 10.2291 102.421 9.72139 101.995 9.32218C101.569 8.9229 100.976 8.72323 100.216 8.72323ZM108.429 13.6172C108.429 11.6209 108.855 10.0893 109.707 9.02264C110.559 7.95612 111.774 7.42273 113.351 7.42273C114.203 7.42273 114.94 7.5711 115.561 7.86764C116.183 8.16426 116.698 8.58359 117.107 9.12538C117.516 9.66723 117.818 10.3175 118.014 11.0762C118.21 11.8347 118.307 12.6818 118.307 13.6172C118.307 15.6136 117.879 17.145 117.021 18.2117C116.163 19.2783 114.94 19.8117 113.351 19.8117C112.51 19.8117 111.782 19.6633 111.166 19.3668C110.55 19.0702 110.038 18.6509 109.629 18.1091C109.22 17.5672 108.918 16.9169 108.722 16.1583C108.527 15.3996 108.429 14.5526 108.429 13.6172ZM109.949 13.6172C109.949 14.2788 110.015 14.9063 110.147 15.4995C110.28 16.0927 110.484 16.6146 110.76 17.0652C111.037 17.5158 111.391 17.8752 111.822 18.1432C112.254 18.4113 112.764 18.5454 113.351 18.5454C114.422 18.5454 115.262 18.1432 115.872 17.3389C116.483 16.5347 116.788 15.2942 116.788 13.6172C116.788 12.9669 116.721 12.3423 116.589 11.7435C116.457 11.1445 116.249 10.6198 115.967 10.1692C115.685 9.71853 115.328 9.35922 114.897 9.09113C114.465 8.8231 113.95 8.68906 113.351 8.68906C112.292 8.68906 111.46 9.09113 110.855 9.89535C110.251 10.6997 109.949 11.9403 109.949 13.6172Z" fill="white"/>
<path fill-rule="evenodd" clip-rule="evenodd" d="M19.4424 3.1507L8.86996 9.40744L10.4234 10.3844V18.4952L18.6944 23.2267L27.185 18.3697V17.7149V14.3806V10.6357L28.9624 9.61878L18.6017 3.64822L19.1213 3.34083L32.5028 11.0753V13.6571C32.6641 13.7192 32.7783 13.8738 32.7783 14.0547C32.7783 14.2145 32.6893 14.3536 32.5575 14.4267L32.7362 14.5794C32.859 14.6876 32.8849 14.7958 32.9076 14.9323L32.9994 15.5828L32.8745 15.5807L32.7731 15.2763L32.8306 15.5831L32.7024 15.5797L32.6399 15.4397L32.6523 15.5783L32.4758 15.5739L32.4365 15.3966L32.4239 15.5725L32.1517 15.5654L32.1173 15.3911L32.1039 15.5694L31.9796 15.5684L31.9765 15.3383L31.8857 15.5668L31.6904 15.5622L31.7356 15.0252C31.7557 14.7889 31.8153 14.7443 31.8927 14.6494L32.0935 14.4025C31.9834 14.3252 31.9115 14.1982 31.9115 14.0547C31.9115 13.88 32.0179 13.7301 32.1706 13.664L32.0384 11.3456L30.1555 12.4182V20.4268L18.6646 27L6.90819 20.2749V12.4045L2 9.59695L18.7766 0L35.9711 9.83585L33.4641 11.2699L19.4424 3.1507ZM23.7638 10.4851V10.6488V16.465V16.5053L18.7948 19.3478L18.7596 19.3275L18.7245 19.3478L13.7554 16.5053V13.5265V10.6488V10.4851L17.029 8.61263L17.0288 14.6639L18.7596 15.6539L20.4903 14.6639L20.4904 8.61263L23.7638 10.4851Z" fill="white"/>
<path fill-rule="evenodd" clip-rule="evenodd" d="M19.4424 3.15078L8.86989 9.40751L10.4234 10.3843V18.4952L18.6944 23.2267L27.1849 18.3696V17.7149V14.3807V10.6357L28.9624 9.61885L18.6017 3.64822L19.1214 3.34076L32.5028 11.0754V13.6571C32.6641 13.7193 32.7784 13.8738 32.7784 14.0547C32.7784 14.2145 32.6893 14.3536 32.5575 14.4267L32.7362 14.5794C32.859 14.6876 32.8849 14.7958 32.9076 14.9323L32.9994 15.5827L32.8744 15.5807L32.773 15.2763L32.8306 15.5831L32.7024 15.5797L32.6398 15.4397L32.6524 15.5784L32.4757 15.5739L32.4365 15.3966L32.4238 15.5724L32.1517 15.5654L32.1172 15.3911L32.1039 15.5694L31.9796 15.5684L31.9765 15.3382L31.8857 15.5667L31.6904 15.5621L31.7356 15.0251C31.7557 14.7888 31.8152 14.7443 31.8927 14.6495L32.0935 14.4025C31.9833 14.3252 31.9115 14.1982 31.9115 14.0547C31.9115 13.8801 32.0179 13.73 32.1706 13.664L32.0383 11.3456L30.1554 12.4181V20.4269L18.6646 27L6.90819 20.2748V12.4045L2 9.59688L18.7766 0L35.9711 9.83585L33.4641 11.2699L19.4424 3.15078ZM23.7638 10.4851V10.6488V16.465V16.5052L18.7948 19.3477L18.7596 19.3275L18.7244 19.3477L13.7554 16.5052V13.5266V10.6488V10.4851L17.0289 8.61263L17.0288 14.6638L18.7596 15.6539L20.4903 14.6638L20.4904 8.61263L23.7638 10.4851Z" fill="white"/>
<path d="M45.5463 7.62813H46.9279V15.6193C46.9279 16.3379 46.8329 16.9596 46.6429 17.4844C46.4529 18.0092 46.1823 18.4399 45.8312 18.7764C45.4801 19.1129 45.0569 19.3611 44.5618 19.5207C44.0667 19.6805 43.5198 19.7604 42.9211 19.7604C41.4934 19.7604 40.4168 19.4409 39.6914 18.8021C38.9662 18.1632 38.6035 17.1936 38.6035 15.893V7.62813H40.0369V15.2257C40.0369 15.8302 40.0974 16.3408 40.2182 16.7572C40.3391 17.1736 40.5205 17.5102 40.7622 17.7667C41.0041 18.0234 41.3063 18.2088 41.669 18.323C42.0316 18.437 42.4548 18.4941 42.9384 18.4941C43.871 18.4941 44.5388 18.2402 44.9417 17.7326C45.3448 17.2249 45.5463 16.3893 45.5463 15.2257V7.62813ZM54.3456 11.7691L53.413 10.0409H53.3439L53.5166 11.7691V19.6063H52.1695V7.43992H52.9294L58.7151 15.4311L59.6132 17.0738H59.6994L59.5095 15.4311V7.62813H60.8566V19.7946H60.0967L54.3456 11.7691ZM66.4266 7.62813H67.86V19.6063H66.4266V7.62813ZM76.573 15.8588L76.9875 17.6727H77.0047L77.4539 15.8247L80.3726 7.62813H81.806L77.2293 19.7946H76.5903L71.9272 7.62813H73.4989L76.573 15.8588ZM85.5451 7.62813H92.1251V8.89446H86.9786V12.813H91.6934V14.0793H86.9786V18.34H92.2115V19.6063H85.5451V7.62813ZM97.1078 7.74792C97.5454 7.66804 98.0491 7.60528 98.619 7.55964C99.189 7.51407 99.7098 7.49122 100.182 7.49122C100.712 7.49122 101.215 7.54824 101.693 7.6623C102.171 7.77636 102.591 7.96458 102.954 8.22701C103.317 8.48938 103.607 8.83169 103.826 9.25376C104.045 9.67582 104.154 10.1892 104.154 10.7938C104.154 11.7292 103.895 12.4878 103.377 13.0697C102.859 13.6514 102.203 14.0393 101.408 14.2333L102.237 14.8664L105.242 19.6063H103.567L100.234 14.4386L98.5413 14.1819V19.6063H97.1078V7.74792ZM100.216 8.72323C100.067 8.72323 99.9114 8.72323 99.7503 8.72323C99.5889 8.72323 99.4336 8.72896 99.2839 8.74035C99.1342 8.75181 98.9932 8.7632 98.8608 8.77453C98.7284 8.78599 98.6219 8.80311 98.5413 8.82596V13.2408H99.8884C100.683 13.2408 101.339 13.0468 101.857 12.6589C102.375 12.271 102.634 11.6664 102.634 10.8451C102.634 10.2291 102.421 9.72139 101.995 9.32218C101.569 8.9229 100.976 8.72323 100.216 8.72323ZM108.429 13.6172C108.429 11.6209 108.855 10.0893 109.707 9.02264C110.559 7.95612 111.774 7.42273 113.351 7.42273C114.203 7.42273 114.94 7.5711 115.561 7.86764C116.183 8.16426 116.698 8.58359 117.107 9.12538C117.516 9.66723 117.818 10.3175 118.014 11.0762C118.21 11.8347 118.307 12.6818 118.307 13.6172C118.307 15.6136 117.879 17.145 117.021 18.2117C116.163 19.2783 114.94 19.8117 113.351 19.8117C112.51 19.8117 111.782 19.6633 111.166 19.3668C110.55 19.0702 110.038 18.6509 109.629 18.1091C109.22 17.5672 108.918 16.9169 108.722 16.1583C108.527 15.3996 108.429 14.5526 108.429 13.6172ZM109.949 13.6172C109.949 14.2788 110.015 14.9063 110.147 15.4995C110.28 16.0927 110.484 16.6146 110.76 17.0652C111.037 17.5158 111.391 17.8752 111.822 18.1432C112.254 18.4113 112.764 18.5454 113.351 18.5454C114.422 18.5454 115.262 18.1432 115.872 17.3389C116.483 16.5347 116.788 15.2942 116.788 13.6172C116.788 12.9669 116.721 12.3423 116.589 11.7435C116.457 11.1445 116.249 10.6198 115.967 10.1692C115.685 9.71853 115.328 9.35922 114.897 9.09113C114.465 8.8231 113.95 8.68906 113.351 8.68906C112.292 8.68906 111.46 9.09113 110.855 9.89535C110.251 10.6997 109.949 11.9403 109.949 13.6172Z" fill="white"/>
</g>
<defs>
<filter id="filter0_d_1_19" x="0" y="0" width="120.307" height="31" filterUnits="userSpaceOnUse" color-interpolation-filters="sRGB">
<feFlood flood-opacity="0" result="BackgroundImageFix"/>
<feColorMatrix in="SourceAlpha" type="matrix" values="0 0 0 0 0 0 0 0 0 0 0 0 0 0 0 0 0 0 127 0" result="hardAlpha"/>
<feOffset dy="2"/>
<feGaussianBlur stdDeviation="1"/>
<feComposite in2="hardAlpha" operator="out"/>
<feColorMatrix type="matrix" values="0 0 0 0 0 0 0 0 0 0 0 0 0 0 0 0 0 0 0.5 0"/>
<feBlend mode="normal" in2="BackgroundImageFix" result="effect1_dropShadow_1_19"/>
<feBlend mode="normal" in="SourceGraphic" in2="effect1_dropShadow_1_19" result="shape"/>
</filter>
</defs>
</svg>
