<svg height="512" viewBox="0 0 128 128" width="512" xmlns="http://www.w3.org/2000/svg"><g><g><path d="m96.64 91.208-23.6-4.893v-6.708h-18.082v6.708l-23.6 4.893a13 13 0 0 0 -10.358 12.73v17.062h86v-17.062a13 13 0 0 0 -10.36-12.73z" fill="#6bc800"/><path d="m64 7c-26.515 0-33.607 22.766-31.932 34.791 2.312 16.6 8.7 15.813 14.317 27.685a24.455 24.455 0 0 0 10.387 11.238 15.038 15.038 0 0 0 14.456 0 24.455 24.455 0 0 0 10.387-11.238c5.619-11.876 12.005-11.085 14.317-27.685 1.675-12.025-5.417-34.791-31.932-34.791z" fill="#a9db1f"/><g fill="#4d5e80"><path d="m46.21 34.183a4.1 4.1 0 0 0 -4.891 4.4 20.694 20.694 0 0 0 1.754 6.746 6.218 6.218 0 0 0 4.833 3.568c3.03.413 7.541.383 10.454-2.587a4.077 4.077 0 0 0 -.119-5.819 24.764 24.764 0 0 0 -12.031-6.308z"/><path d="m81.79 34.183a24.764 24.764 0 0 0 -12.031 6.305 4.077 4.077 0 0 0 -.119 5.819c2.913 2.97 7.424 3 10.454 2.587a6.218 6.218 0 0 0 4.833-3.568 20.694 20.694 0 0 0 1.754-6.746 4.1 4.1 0 0 0 -4.891-4.397z"/></g></g><g fill="#6bc800"><path d="m66.173 54.129a3.34 3.34 0 0 1 -4.328.018 1.75 1.75 0 1 0 -2.483 2.467 6.82 6.82 0 0 0 9.276 0 1.738 1.738 0 0 0 0-2.445 1.765 1.765 0 0 0 -2.465-.04z"/><path d="m70.06 64.93h-12.12a1.75 1.75 0 0 0 0 3.5h12.12a1.75 1.75 0 0 0 0-3.5z"/><path d="m76.786 23.108a55.146 55.146 0 0 0 -8.85 3.708 8.4 8.4 0 0 1 -7.873 0 55.115 55.115 0 0 0 -8.849-3.708 1.749 1.749 0 1 0 -1.014 3.349 52.513 52.513 0 0 1 8.225 3.453 11.907 11.907 0 0 0 11.147 0 52.739 52.739 0 0 1 8.228-3.453 1.75 1.75 0 1 0 -1.015-3.349z"/></g><g fill="#a9db1f"><path d="m60.173 100.861a44.572 44.572 0 0 0 -13.173-5.69 1.75 1.75 0 0 0 -.813 3.4c.069.017 7.023 1.711 12 5.161a1.75 1.75 0 0 0 2-2.875z"/><path d="m81.005 95.171a44.6 44.6 0 0 0 -13.179 5.689 1.75 1.75 0 0 0 2 2.876c4.973-3.45 11.927-5.144 12-5.161a1.75 1.75 0 0 0 -.813-3.4z"/></g></g></svg>