<svg height="512" viewBox="0 0 128 128" width="512" xmlns="http://www.w3.org/2000/svg"><g><path d="m96 73.889h-64a13 13 0 0 0 -13 13v34.111h90v-34.111a13 13 0 0 0 -13-13z" fill="#def6ff"/><path d="m62.25 79.763h3.5v27.933h-3.5z" fill="#c5e2f9"/><g fill="#4d5e80"><path d="m85.154 66.348h-42.308c-6.656 2.757-8.388 7.541-8.388 7.541a44.624 44.624 0 0 0 59.084 0s-1.732-4.784-8.388-7.541z"/><path d="m101.621 31.094h-5.5v18.706h5.5a2 2 0 0 0 2-2v-14.7a2 2 0 0 0 -2-2.006z"/><path d="m24.379 33.094v14.706a2 2 0 0 0 2 2h5.5v-18.7h-5.5a2 2 0 0 0 -2 1.994z"/></g><circle cx="64" cy="40.444" fill="#def6ff" r="33.444"/><path d="m48.378 107.696h31.245v13.304h-31.245z" fill="#ffd92e"/><path d="m64 26.706a47.675 47.675 0 0 0 -24.862 6.885 25.783 25.783 0 1 0 49.724 0 47.675 47.675 0 0 0 -24.862-6.885z" fill="#75e1f7"/></g></svg>