<svg height="512" viewBox="0 0 128 128" width="512" xmlns="http://www.w3.org/2000/svg"><g><g><path d="m92.938 69.443a120.379 120.379 0 0 1 28.062-5.443 120.441 120.441 0 0 1 -28.058-5.441 8 8 0 0 1 -4.613-11.21 120.541 120.541 0 0 1 15.976-23.649 120.406 120.406 0 0 1 -23.684 15.99 7.969 7.969 0 0 1 -11.169-4.6 120.367 120.367 0 0 1 -5.452-28.09 120.43 120.43 0 0 1 -5.45 28.085 7.974 7.974 0 0 1 -11.175 4.6 120.452 120.452 0 0 1 -23.675-15.985 120.451 120.451 0 0 1 15.981 23.67 7.978 7.978 0 0 1 -4.6 11.181 120.389 120.389 0 0 1 -28.081 5.449 120.441 120.441 0 0 1 28.076 5.447 7.983 7.983 0 0 1 4.6 11.187 120.451 120.451 0 0 1 -15.976 23.671 120.5 120.5 0 0 1 23.662-15.982 7.985 7.985 0 0 1 11.192 4.605 120.442 120.442 0 0 1 5.446 28.072 120.494 120.494 0 0 1 5.444-28.067 7.99 7.99 0 0 1 11.2-4.608 120.5 120.5 0 0 1 23.663 15.98 120.512 120.512 0 0 1 -15.98-23.659 7.994 7.994 0 0 1 4.611-11.203z" fill="#f95353"/><circle cx="64" cy="64" fill="#ffd92e" r="14.34"/></g><g fill="#ffd92e"><path d="m47.383 19.309a1.75 1.75 0 0 0 -3.235 1.338l2.834 6.843a1.751 1.751 0 0 0 3.235-1.339z"/><path d="m81.018 100.51a1.751 1.751 0 0 0 -3.235 1.339l2.834 6.842a1.751 1.751 0 0 0 3.235-1.339z"/><path d="m107.352 44.149-6.842 2.834a1.75 1.75 0 1 0 1.34 3.233l6.841-2.834a1.75 1.75 0 1 0 -1.339-3.233z"/><path d="m26.15 77.784-6.841 2.834a1.75 1.75 0 1 0 1.339 3.233l6.842-2.834a1.75 1.75 0 1 0 -1.34-3.233z"/><path d="m82.9 18.361a1.749 1.749 0 0 0 -2.287.948l-2.834 6.842a1.751 1.751 0 0 0 3.235 1.339l2.834-6.843a1.751 1.751 0 0 0 -.948-2.286z"/><path d="m49.269 99.563a1.748 1.748 0 0 0 -2.287.947l-2.834 6.842a1.751 1.751 0 0 0 3.235 1.339l2.834-6.842a1.751 1.751 0 0 0 -.948-2.286z"/><path d="m108.691 80.618-6.841-2.834a1.75 1.75 0 1 0 -1.34 3.233l6.842 2.834a1.75 1.75 0 1 0 1.339-3.233z"/><path d="m27.49 46.983-6.842-2.834a1.75 1.75 0 1 0 -1.339 3.233l6.841 2.834a1.75 1.75 0 1 0 1.34-3.233z"/></g></g></svg>