<svg height="512" viewBox="0 0 128 128" width="512" xmlns="http://www.w3.org/2000/svg"><g><circle cx="64" cy="64" fill="#3c4566" r="37.401"/><g fill="#4d5e80"><path d="m55.725 14.789a1.954 1.954 0 1 0 1.954 1.953 1.953 1.953 0 0 0 -1.954-1.953z"/><path d="m72.275 109.3a1.954 1.954 0 1 0 1.953 1.954 1.954 1.954 0 0 0 -1.953-1.954z"/><path d="m111.258 53.772a1.954 1.954 0 1 0 1.953 1.953 1.953 1.953 0 0 0 -1.953-1.953z"/><path d="m16.742 70.321a1.954 1.954 0 1 0 1.958 1.954 1.953 1.953 0 0 0 -1.958-1.954z"/><path d="m90.184 23.351a1.953 1.953 0 1 0 2.762 0 1.954 1.954 0 0 0 -2.762 0z"/><path d="m35.054 101.886a1.953 1.953 0 1 0 2.762 0 1.954 1.954 0 0 0 -2.762 0z"/><path d="m101.886 90.184a1.953 1.953 0 1 0 2.763 0 1.952 1.952 0 0 0 -2.763 0z"/><path d="m23.351 35.053a1.954 1.954 0 1 0 2.763 0 1.954 1.954 0 0 0 -2.763 0z"/><path d="m62.757 5.769a1.751 1.751 0 0 0 .012 2.475c.184.183 18.463 18.605 19.534 45.561a1.749 1.749 0 0 0 1.747 1.68h.071a1.75 1.75 0 0 0 1.679-1.819c-1.127-28.376-19.776-47.126-20.569-47.911a1.75 1.75 0 0 0 -2.474.014z"/><path d="m45.7 74.195a1.75 1.75 0 0 0 -3.5.139c1.127 28.375 19.776 47.126 20.569 47.911a1.75 1.75 0 0 0 2.462-2.489c-.184-.183-18.463-18.605-19.531-45.561z"/><path d="m119.756 62.769c-.183.184-18.605 18.463-45.561 19.534a1.75 1.75 0 0 0 .069 3.5h.07c28.375-1.127 47.126-19.776 47.911-20.57a1.75 1.75 0 0 0 -2.489-2.461z"/><path d="m53.666 42.2c-28.375 1.127-47.126 19.776-47.911 20.569a1.75 1.75 0 0 0 2.489 2.462c.183-.184 18.605-18.463 45.561-19.534a1.75 1.75 0 1 0 -.139-3.5z"/><path d="m104.305 21.945h-.005a1.752 1.752 0 0 0 -1.741 1.759c0 .259-.1 26.211-18.4 46.028a1.75 1.75 0 1 0 2.572 2.375c19.266-20.861 19.339-47.307 19.332-48.422a1.75 1.75 0 0 0 -1.758-1.74z"/><path d="m41.277 55.893c-19.266 20.861-19.339 47.307-19.332 48.422a1.75 1.75 0 0 0 1.75 1.74h.005a1.752 1.752 0 0 0 1.741-1.759c0-.259.1-26.211 18.4-46.028a1.75 1.75 0 1 0 -2.572-2.375z"/><path d="m104.3 102.555c-.251 0-26.208-.1-46.028-18.4a1.75 1.75 0 1 0 -2.375 2.572c20.557 18.985 46.536 19.332 48.357 19.332h.065a1.75 1.75 0 0 0 -.011-3.5z"/><path d="m23.685 21.945a1.75 1.75 0 0 0 .011 3.5h.012c.464 0 26.287.174 46.024 18.4a1.75 1.75 0 1 0 2.375-2.572c-20.865-19.266-47.338-19.317-48.422-19.328z"/><circle cx="64" cy="64" r="24.787"/></g></g></svg>