<svg height="512" viewBox="0 0 128 128" width="512" xmlns="http://www.w3.org/2000/svg"><g><path d="m79.823 64.154h3.5v24.095h-3.5z" fill="#4d5e80" transform="matrix(.519 -.855 .855 .519 -25.886 106.423)"/><path d="m34.379 74.452h24.095v3.5h-24.095z" fill="#4d5e80" transform="matrix(.855 -.519 .519 .855 -32.792 35.135)"/><path d="m30.185 82.167 23.136 28.876v-15.224l-21.017-19.743z" fill="#c5e2f9"/><path d="m74.679 95.819v15.224l23.136-28.876-2.119-6.091z" fill="#c5e2f9"/><path d="m57.81 111.043-2.561 9.957h17.502l-2.561-9.957z" fill="#4d5e80"/><path d="m64 7s-10.679 7.614-10.679 20.836v83.207h21.358v-83.207c0-13.222-10.679-20.836-10.679-20.836z" fill="#def6ff"/><path d="m64 7s-10.68 7.61-10.68 20.84h21.36c-.004-13.23-10.68-20.84-10.68-20.84z" fill="#4d5e80"/><path d="m25.31 28.976h20.243v14.752h-20.243z" fill="#75e1f7"/><path d="m82.447 28.976h20.243v14.752h-20.243z" fill="#75e1f7"/><g fill="#30cffc"><path d="m33.681 28.976h3.5v14.752h-3.5z"/><path d="m45.553 34.602h7.768v3.5h-7.768z"/><path d="m90.819 28.976h3.5v14.752h-3.5z"/><path d="m74.679 34.602h7.768v3.5h-7.768z"/></g></g></svg>