<svg width="34" height="34" viewBox="0 0 34 34" fill="none" xmlns="http://www.w3.org/2000/svg">
<rect width="34" height="34" rx="17" fill="white"/>
<path d="M26.4385 25.022C25.3229 24.9954 24.2338 24.9954 23.1182 25.022C22.8791 25.022 22.826 24.9688 22.826 24.7298C22.826 22.7641 22.826 20.772 22.826 18.8063C22.826 18.3548 22.7994 17.9032 22.6666 17.4782C22.2682 16.097 20.6744 15.5923 19.5322 16.522C18.9213 17.0001 18.6822 17.6641 18.6822 18.461C18.6822 20.3204 18.6822 22.1798 18.6822 24.0391C18.6822 24.2782 18.6557 24.5173 18.6822 24.7829C18.7088 24.9954 18.6025 25.0485 18.4166 25.022C17.2744 25.022 16.1588 25.022 15.0166 25.022C14.8041 25.022 14.751 24.9688 14.751 24.7563C14.7775 23.0829 14.7775 21.4095 14.7775 19.7095C14.7775 17.6376 14.7775 15.5657 14.751 13.5204C14.751 13.2813 14.8041 13.2282 15.0166 13.2282C16.1588 13.2282 17.2744 13.2282 18.4166 13.2282C18.6291 13.2282 18.6822 13.2813 18.6822 13.4938C18.6822 13.9188 18.6822 14.3438 18.6822 14.8485C18.7619 14.7688 18.7885 14.7423 18.815 14.7157C19.851 13.2016 21.3119 12.7766 23.0385 13.0423C25.0307 13.361 26.3057 14.7423 26.6244 16.8673C26.7041 17.372 26.7307 17.8766 26.7307 18.3813C26.7307 20.5063 26.7307 22.6048 26.7307 24.7298C26.7307 24.9423 26.6775 25.022 26.4385 25.022Z" fill="#151027"/>
<path d="M12.626 19.1251C12.626 20.9845 12.626 22.8439 12.626 24.7033C12.626 24.9423 12.5729 25.022 12.3338 25.022C11.2182 24.9955 10.1026 25.022 8.98694 25.022C8.77444 25.022 8.72131 24.9689 8.72131 24.7564C8.72131 21.0111 8.72131 17.2392 8.72131 13.4939C8.72131 13.308 8.77444 13.2283 8.98694 13.2283C10.1291 13.2283 11.2713 13.2283 12.4135 13.2283C12.6526 13.2283 12.6791 13.308 12.6791 13.5205C12.626 15.3798 12.626 17.2392 12.626 19.1251Z" fill="#151027"/>
<path d="M12.812 10.1469C12.5464 11.2094 11.4573 11.8204 10.2089 11.6079C8.88073 11.3954 8.13698 10.0938 8.61511 8.81883C8.93386 8.02195 9.70417 7.54383 10.687 7.57039C12.1745 7.54383 13.1573 8.73914 12.812 10.1469Z" fill="#151027"/>
</svg>
