<svg height="512" viewBox="0 0 128 128" width="512" xmlns="http://www.w3.org/2000/svg"><g><path d="m7 116a5 5 0 0 0 5 5h104a5 5 0 0 0 5-5v-99.1h-114z" fill="#def6ff"/><path d="m7 16.895h114v22.369h-114z" fill="#fb9700"/><circle cx="64" cy="80.132" fill="#ffd92e" r="24.502" transform="matrix(.997 -.071 .071 .997 -5.519 4.738)"/><g fill="#def6ff"><path d="m100.022 7a3.425 3.425 0 0 0 -3.422 3.425v12.94a3.426 3.426 0 0 0 6.851 0v-12.94a3.425 3.425 0 0 0 -3.429-3.425z"/><path d="m85.978 7a3.425 3.425 0 0 0 -3.425 3.425v12.94a3.426 3.426 0 0 0 6.851 0v-12.94a3.425 3.425 0 0 0 -3.426-3.425z"/><path d="m42.022 7a3.425 3.425 0 0 0 -3.422 3.425v12.94a3.426 3.426 0 0 0 6.851 0v-12.94a3.425 3.425 0 0 0 -3.429-3.425z"/><path d="m27.978 7a3.425 3.425 0 0 0 -3.425 3.425v12.94a3.426 3.426 0 0 0 6.851 0v-12.94a3.425 3.425 0 0 0 -3.426-3.425z"/></g><path d="m52.19 81.854a1.953 1.953 0 1 0 1.954 1.953 1.953 1.953 0 0 0 -1.954-1.953z" fill="#fcbe00"/><path d="m77.162 74a1.954 1.954 0 1 0 1.953 1.954 1.953 1.953 0 0 0 -1.953-1.954z" fill="#fcbe00"/><path d="m60.12 65.731a1.954 1.954 0 1 0 1.953 1.954 1.953 1.953 0 0 0 -1.953-1.954z" fill="#fcbe00"/><path d="m71.112 94.9a1.954 1.954 0 1 0 1.954 1.954 1.953 1.953 0 0 0 -1.954-1.954z" fill="#fcbe00"/><path d="m83.03 63.21c-.42.01-.85.03-1.28.05a23.967 23.967 0 0 1 2.74 3.43c4.71.07 7.95 1.12 8.58 2.86.6 1.67-1.03 4.49-4.75 7.69-4.33 3.75-11.48 8-21.18 11.53-8.03 2.93-15.93 4.63-22.26 4.79-.47.01-.93.02-1.37.01-4.71-.07-7.95-1.13-8.58-2.86s1.17-4.63 4.74-7.71a24.713 24.713 0 0 1 -.17-2.87c0-.51.02-1.01.05-1.51-.35.26-.68.52-1.01.78-5.81 4.62-8.2 8.95-6.9 12.51 1.23 3.39 5.46 5.16 12.26 5.16.35 0 .71 0 1.07-.01.43-.01.86-.03 1.29-.05a79.652 79.652 0 0 0 22.08-4.95 80.768 80.768 0 0 0 20.11-10.45c4.99-3.74 8.25-7.72 8.25-11.31a5.638 5.638 0 0 0 -.34-1.95c-1.3-3.56-5.93-5.34-13.33-5.14z" fill="#f95353"/></g></svg>