<svg height="512" viewBox="0 0 128 128" width="512" xmlns="http://www.w3.org/2000/svg"><g><g fill="#def6ff"><circle cx="26.462" cy="26.462" r="19.462" transform="matrix(.987 -.16 .16 .987 -3.897 4.581)"/><circle cx="101.538" cy="26.462" r="19.462" transform="matrix(.099 -.995 .995 .099 65.199 124.898)"/><circle cx="101.538" cy="101.538" r="19.462" transform="matrix(.987 -.16 .16 .987 -14.953 17.576)"/><circle cx="26.462" cy="101.538" r="19.462" transform="matrix(.811 -.585 .585 .811 -54.375 34.639)"/></g><path d="m28.014 33.615 23.163 25.169 1.152-13.548-18.714-17.222z" fill="#4d5e80"/><path d="m75.671 45.236 1.152 13.548 23.163-25.169-5.601-5.601z" fill="#4d5e80"/><path d="m75.671 82.764 18.714 17.222 5.601-5.601-23.163-25.169z" fill="#4d5e80"/><path d="m28.014 94.385 5.601 5.601 18.714-17.222-1.152-13.548z" fill="#4d5e80"/><path d="m26.462 19.143a7.319 7.319 0 1 0 7.319 7.319 7.319 7.319 0 0 0 -7.319-7.319z" fill="#75e1f7"/><path d="m54.539 39.37s-2.832 4.12-3.362 14.251v20.758c.53 10.131 3.362 14.251 3.362 14.251h18.922s2.831-4.12 3.362-14.251v-20.758c-.531-10.131-3.362-14.251-3.362-14.251z" fill="#def6ff"/><path d="m101.538 19.143a7.319 7.319 0 1 0 7.319 7.319 7.319 7.319 0 0 0 -7.319-7.319z" fill="#75e1f7"/><path d="m101.538 94.219a7.319 7.319 0 1 0 7.319 7.319 7.318 7.318 0 0 0 -7.319-7.319z" fill="#75e1f7"/><path d="m26.462 94.219a7.319 7.319 0 1 0 7.319 7.319 7.319 7.319 0 0 0 -7.319-7.319z" fill="#75e1f7"/><path d="m51.18 53.62v20.76c.53 10.13 3.36 14.25 3.36 14.25h6.18l-2.26-29.85z" fill="#c5e2f9"/><path d="m67.28 88.63h6.18s2.83-4.12 3.36-14.25v-20.76l-7.28 5.16z" fill="#c5e2f9"/></g></svg>