<svg height="512" viewBox="0 0 128 128" width="512" xmlns="http://www.w3.org/2000/svg"><g><path d="m18.898 109.101h90.201l11.899-19.801h-114z" fill="#def6ff"/><circle cx="109.099" cy="109.101" fill="#4d5e80" r="11.899"/><circle cx="18.898" cy="109.101" fill="#4d5e80" r="11.899" transform="matrix(.973 -.23 .23 .973 -24.561 7.26)"/><circle cx="48.965" cy="109.101" fill="#4d5e80" r="11.899"/><circle cx="79.032" cy="109.101" fill="#4d5e80" r="11.899" transform="matrix(.707 -.707 .707 .707 -53.998 87.839)"/><path d="m6.998 38.616 9.282 2.359v-14.793l-9.282 2.359z" fill="#f95353"/><path d="m6.998 7 9.282 14.387h26.593l-9.919-9.42z" fill="#4d5e80"/><path d="m6.998 60.157 25.956-4.967 9.919-9.419h-26.593z" fill="#4d5e80"/><path d="m48.06 52.586-14.72 22.665h61.317l-14.72-22.665z" fill="#def6ff"/><path d="m89.594 21.387h-73.314v24.384h73.314c20.939 0 31.4-12.192 31.4-12.192s-10.461-12.192-31.4-12.192z" fill="#def6ff"/><path d="m89.591 21.39v24.38c20.94 0 31.41-12.19 31.41-12.19s-10.47-12.19-31.41-12.19z" fill="#f95353"/><path d="m76.437 38.956h-24.877a3.5 3.5 0 0 0 -3.5 3.5v10.13h31.877v-10.13a3.5 3.5 0 0 0 -3.5-3.5z" fill="#30cffc"/><path d="m6.998 75.251h114v14.049h-114z" fill="#4d5e80"/><g fill="#def6ff"><path d="m109.1 104.165a4.936 4.936 0 1 0 4.937 4.936 4.936 4.936 0 0 0 -4.937-4.936z"/><path d="m18.9 104.165a4.936 4.936 0 1 0 4.936 4.936 4.936 4.936 0 0 0 -4.936-4.936z"/><path d="m48.965 104.165a4.936 4.936 0 1 0 4.935 4.935 4.936 4.936 0 0 0 -4.935-4.935z"/><path d="m79.032 104.165a4.936 4.936 0 1 0 4.936 4.936 4.936 4.936 0 0 0 -4.936-4.936z"/></g></g></svg>