<svg height="512" viewBox="0 0 128 128" width="512" xmlns="http://www.w3.org/2000/svg"><g><path d="m32.26 5.25a1.75 1.75 0 0 0 -1.75 1.75v18.1a1.75 1.75 0 0 0 3.5 0v-18.1a1.75 1.75 0 0 0 -1.75-1.75z" fill="#75e1f7"/><path d="m95.412 45.42a1.75 1.75 0 0 0 -1.75 1.75v12.887a1.75 1.75 0 0 0 3.5 0v-12.887a1.75 1.75 0 0 0 -1.75-1.75z" fill="#75e1f7"/><path d="m32.26 22.944c-14.469 0-18.637 10.892-18.637 10.892h37.277s-4.171-10.892-18.64-10.892z" fill="#def6ff"/><path d="m24.733 85.349h15.053v9.693h-15.053z" fill="#c5e2f9"/><path d="m80.236 33.836h30.352l3.46-6.876h-37.273z" fill="#4d5e80"/><g fill="#def6ff"><path d="m20.922 95.042h22.676v25.958h-22.676z"/><path d="m20.922 85.349h22.678a28.018 28.018 0 0 1 8.215-12.6h-39.108a28.018 28.018 0 0 1 8.215 12.6z"/><path d="m23.3 65.855h17.919l8.156-24.032h-34.23z"/><path d="m95.412 7c-14.469 0-18.637 13.526-18.637 13.526h37.273s-4.167-13.526-18.636-13.526z"/></g><path d="m79.189 79.048-9.366 41.952h51.177l-9.365-41.952z" fill="#75e1f7"/><path d="m79.189 60.057h32.446v18.991h-32.446z" fill="#def6ff"/><path d="m114.63 20.526h-38.437a3.217 3.217 0 0 0 0 6.434h38.437a3.217 3.217 0 0 0 0-6.434z" fill="#75e1f7"/><path d="m54.073 65.855h-43.627a3.446 3.446 0 1 0 0 6.892h43.627a3.446 3.446 0 1 0 0-6.892z" fill="#4d5e80"/><path d="m15.145 41.823h34.23l8.145-7.987h-50.52z" fill="#4d5e80"/><g fill="#30cffc"><path d="m99.018 107.566h-7.212a1.75 1.75 0 0 0 0 3.5h7.212a1.75 1.75 0 0 0 0-3.5z"/><path d="m99.018 98.274h-7.212a1.75 1.75 0 1 0 0 3.5h7.212a1.75 1.75 0 0 0 0-3.5z"/><path d="m99.018 88.982h-7.212a1.75 1.75 0 0 0 0 3.5h7.212a1.75 1.75 0 0 0 0-3.5z"/></g></g></svg>