<svg width="34" height="34" viewBox="0 0 34 34" fill="none" xmlns="http://www.w3.org/2000/svg">
<rect width="34" height="34" rx="17" fill="#151027"/>
<rect width="34" height="34" rx="17" fill="#151027"/>
<path d="M7.64105 16.6256C12.5847 14.4264 15.8813 12.9766 17.5307 12.2761C22.2402 10.2761 23.2188 9.9287 23.8566 9.9171C23.9969 9.9147 24.3106 9.9502 24.5138 10.1185C24.6853 10.2607 24.7325 10.4527 24.7551 10.5874C24.7777 10.7222 24.8058 11.0292 24.7835 11.2691C24.5283 14.0069 23.424 20.651 22.8622 23.7174C22.6245 25.015 22.1564 25.45 21.7032 25.4926C20.7185 25.5851 19.9706 24.8281 19.0168 24.1897C17.5243 23.1908 16.6811 22.5689 15.2323 21.5941C13.558 20.4676 14.6434 19.8484 15.5976 18.8365C15.8473 18.5717 20.1863 14.5421 20.2703 14.1765C20.2808 14.1308 20.2905 13.9604 20.1914 13.8704C20.0922 13.7804 19.9459 13.8112 19.8403 13.8357C19.6906 13.8704 17.3062 15.4795 12.6872 18.663C12.0104 19.1375 11.3974 19.3687 10.8481 19.3566C10.2426 19.3432 9.0779 19.007 8.21204 18.7196C7.15003 18.3672 6.30596 18.1808 6.37946 17.5822C6.41774 17.2704 6.83827 16.9515 7.64105 16.6256Z" fill="white"/>
</svg>
