<svg height="512" viewBox="0 0 128 128" width="512" xmlns="http://www.w3.org/2000/svg"><g><path d="m28.878 101.913h16.293l3.119-8.024h-22.531z" fill="#75e1f7"/><path d="m82.829 101.913h16.293l3.119-8.024h-22.531z" fill="#75e1f7"/><path d="m64 7a51.914 51.914 0 0 0 -51.914 51.914v23.746h103.828v-23.746a51.914 51.914 0 0 0 -51.914-51.914z" fill="#def6ff"/><path d="m37.147 82.66h26.853v-58.133l-26.853 11.868z" fill="#fb9700"/><path d="m78.994 41.968-1.323 26.952h10.899l-1.323-26.952z" fill="#fb9700"/><g fill="#75e1f7"><circle cx="83.12" cy="33.735" r="9.208" transform="matrix(.383 -.924 .924 .383 20.144 97.618)"/><path d="m25.759 60.138h28.131v22.522h-28.131z"/><path d="m64 68.92h38.241v13.739h-38.241z"/></g><path d="m116.5 82.66h-105a4.5 4.5 0 0 0 -4.5 4.5v6.729h114v-6.729a4.5 4.5 0 0 0 -4.5-4.5z" fill="#4d5e80"/><g fill="#ffd92e"><g><path d="m37.024 107.8a1.751 1.751 0 0 0 -1.75 1.75v4.481a1.75 1.75 0 0 0 3.5 0v-4.481a1.75 1.75 0 0 0 -1.75-1.75z"/><path d="m37.024 118.007a1.75 1.75 0 0 0 -1.75 1.75v1.243a1.75 1.75 0 0 0 3.5 0v-1.243a1.749 1.749 0 0 0 -1.75-1.75z"/></g><g><path d="m44.787 107.8a1.75 1.75 0 0 0 -1.75 1.75v4.481a1.75 1.75 0 0 0 3.5 0v-4.481a1.751 1.751 0 0 0 -1.75-1.75z"/><path d="m44.787 118.007a1.749 1.749 0 0 0 -1.75 1.75v1.243a1.75 1.75 0 0 0 3.5 0v-1.243a1.75 1.75 0 0 0 -1.75-1.75z"/></g><g><path d="m29.262 107.8a1.751 1.751 0 0 0 -1.75 1.75v4.481a1.75 1.75 0 0 0 3.5 0v-4.481a1.75 1.75 0 0 0 -1.75-1.75z"/><path d="m29.262 118.007a1.75 1.75 0 0 0 -1.75 1.75v1.243a1.75 1.75 0 0 0 3.5 0v-1.243a1.749 1.749 0 0 0 -1.75-1.75z"/></g></g><g fill="#ffd92e"><g><path d="m90.975 107.8a1.751 1.751 0 0 0 -1.75 1.75v4.481a1.75 1.75 0 0 0 3.5 0v-4.481a1.75 1.75 0 0 0 -1.75-1.75z"/><path d="m90.975 118.007a1.75 1.75 0 0 0 -1.75 1.75v1.243a1.75 1.75 0 0 0 3.5 0v-1.243a1.749 1.749 0 0 0 -1.75-1.75z"/></g><g><path d="m98.738 107.8a1.75 1.75 0 0 0 -1.75 1.75v4.481a1.75 1.75 0 0 0 3.5 0v-4.481a1.751 1.751 0 0 0 -1.75-1.75z"/><path d="m98.738 118.007a1.749 1.749 0 0 0 -1.75 1.75v1.243a1.75 1.75 0 0 0 3.5 0v-1.243a1.75 1.75 0 0 0 -1.75-1.75z"/></g><g><path d="m83.213 107.8a1.751 1.751 0 0 0 -1.75 1.75v4.481a1.75 1.75 0 0 0 3.5 0v-4.481a1.75 1.75 0 0 0 -1.75-1.75z"/><path d="m83.213 118.007a1.75 1.75 0 0 0 -1.75 1.75v1.243a1.75 1.75 0 0 0 3.5 0v-1.243a1.749 1.749 0 0 0 -1.75-1.75z"/></g></g><path d="m74.08 31.98a9.294 9.294 0 0 0 -.17 1.76 9.007 9.007 0 0 0 .17 1.74h18.08a9.007 9.007 0 0 0 .17-1.74 9.294 9.294 0 0 0 -.17-1.76z" fill="#30cffc"/><path d="m55.51 38.35a1.746 1.746 0 0 0 1.75 1.75h6.74v-3.5h-6.74a1.746 1.746 0 0 0 -1.75 1.75z" fill="#f47400"/><path d="m55.51 45.61a1.746 1.746 0 0 0 1.75 1.75h6.74v-3.5h-6.74a1.752 1.752 0 0 0 -1.75 1.75z" fill="#f47400"/><path d="m55.51 52.88a1.743 1.743 0 0 0 1.75 1.74h6.74v-3.5h-6.74a1.754 1.754 0 0 0 -1.75 1.76z" fill="#f47400"/><path d="m25.759 69.649h28.131v3.5h-28.131z" fill="#30cffc"/></g></svg>