<svg height="512" viewBox="0 0 128 128" width="512" xmlns="http://www.w3.org/2000/svg"><g><path d="m115.981 11.7a1.75 1.75 0 0 0 -2.454.318l-24.82 32.2-49.607-1.874a1.729 1.729 0 0 0 -1.548.817l-25.947 41.272a1.75 1.75 0 0 0 .549 2.412l46.913 29.549a1.751 1.751 0 0 0 2.36-.468l24.589-34.636a1.75 1.75 0 0 0 -2.854-2.026l-23.631 33.286-44.031-27.735 24.477-38.936 49.5 1.871a1.72 1.72 0 0 0 1.452-.68l25.371-32.915a1.748 1.748 0 0 0 -.319-2.455z" fill="#fcbe00"/><g fill="#ffd92e"><circle cx="60" cy="114.913" r="6.087"/><circle cx="13.087" cy="85.364" r="6.087" transform="matrix(.973 -.23 .23 .973 -19.262 5.29)"/><circle cx="114.913" cy="13.087" r="6.087" transform="matrix(.973 -.23 .23 .973 .067 26.752)"/><circle cx="39.034" cy="44.092" r="6.087" transform="matrix(.973 -.23 .23 .973 -9.086 10.148)"/><circle cx="84.589" cy="80.277" r="6.087" transform="matrix(.707 -.707 .707 .707 -31.989 83.326)"/><circle cx="89.542" cy="46.002" r="6.087"/></g><g fill="#ffd92e"><path d="m111 103.5h-2.209a1.75 1.75 0 0 0 0 3.5h2.209a1.75 1.75 0 0 0 0-3.5z"/><path d="m101.7 103.5h-2.206a1.75 1.75 0 0 0 0 3.5h2.206a1.75 1.75 0 0 0 0-3.5z"/><path d="m105.247 107.041a1.75 1.75 0 0 0 -1.75 1.75v2.209a1.75 1.75 0 0 0 3.5 0v-2.209a1.75 1.75 0 0 0 -1.75-1.75z"/><path d="m105.247 97.745a1.749 1.749 0 0 0 -1.75 1.75v2.205a1.75 1.75 0 0 0 3.5 0v-2.2a1.749 1.749 0 0 0 -1.75-1.755z"/></g><g fill="#ffd92e"><path d="m28.506 21h-2.206a1.75 1.75 0 1 0 0 3.5h2.209a1.75 1.75 0 0 0 0-3.5z"/><path d="m19.209 21h-2.209a1.75 1.75 0 0 0 0 3.5h2.209a1.75 1.75 0 1 0 0-3.5z"/><path d="m22.753 24.546a1.75 1.75 0 0 0 -1.753 1.754v2.209a1.75 1.75 0 0 0 3.5 0v-2.209a1.75 1.75 0 0 0 -1.747-1.754z"/><path d="m22.753 15.25a1.75 1.75 0 0 0 -1.753 1.75v2.209a1.75 1.75 0 1 0 3.5 0v-2.209a1.75 1.75 0 0 0 -1.747-1.75z"/></g><g fill="#75e1f7"><path d="m40.121 76.411a1.954 1.954 0 1 0 1.953 1.953 1.953 1.953 0 0 0 -1.953-1.953z"/><path d="m59.953 18.133a1.954 1.954 0 1 0 1.954 1.954 1.954 1.954 0 0 0 -1.954-1.954z"/><circle cx="64.953" cy="62.19" r="1.953"/><path d="m61.04 81.364a1.954 1.954 0 1 0 1.954 1.954 1.954 1.954 0 0 0 -1.954-1.954z"/><circle cx="22.753" cy="114.913" r="1.953"/><circle cx="111" cy="64" r="1.953"/><circle cx="78.502" cy="25.706" r="1.953"/></g></g></svg>