<svg height="512" viewBox="0 0 128 128" width="512" xmlns="http://www.w3.org/2000/svg"><g><g fill="#75e1f7"><path d="m30.136 5.25a1.75 1.75 0 0 0 -1.75 1.75v17.7a1.75 1.75 0 0 0 3.5 0v-17.7a1.751 1.751 0 0 0 -1.75-1.75z"/><path d="m42.136 5.25a1.75 1.75 0 0 0 -1.75 1.75v17.7a1.75 1.75 0 1 0 3.5 0v-17.7a1.751 1.751 0 0 0 -1.75-1.75z"/></g><path d="m91.919 13.593h10.267v3.5h-10.267z" fill="#c5e2f9" transform="matrix(.707 -.707 .707 .707 17.578 73.121)"/><path d="m13.033 55.873h101.935v56.558h-101.935z" fill="#def6ff"/><path d="m22.604 24.696h27.062v17.577h-27.062z" fill="#ffd92e"/><path d="m7 112.431h114v8.569h-114z" fill="#4d5e80"/><path d="m81.45 30.946a16.933 16.933 0 0 0 23.946 0l-23.946-23.946a16.931 16.931 0 0 0 0 23.946z" fill="#def6ff"/><path d="m97.469 8.5a4.545 4.545 0 1 0 6.427 0 4.545 4.545 0 0 0 -6.427 0z" fill="#ffd92e"/><path d="m80.9 26.725a4.1 4.1 0 0 0 -4.05 3.476l-1.85 12.072h11.8l-1.85-12.073a4.1 4.1 0 0 0 -4.05-3.475z" fill="#75e1f7"/><path d="m22.604 65.444h82.792v25.807h-82.792z" fill="#75e1f7"/><path d="m62.25 65.444h3.5v25.807h-3.5z" fill="#30cffc"/><path d="m8.855 55.873h110.29l1.855-13.6h-114z" fill="#4d5e80"/></g></svg>