<svg height="512" viewBox="0 0 128 128" width="512" xmlns="http://www.w3.org/2000/svg"><g><path d="m98.605 40.444h-69.205a5 5 0 0 0 -5 5v30.912h79.209v-30.912a5 5 0 0 0 -5.004-5z" fill="#4d5e80"/><path d="m96 73.889h-64a13 13 0 0 0 -13 13v34.111h90v-34.111a13 13 0 0 0 -13-13z" fill="#def6ff"/><path d="m96 73.89h-12.161v6.53s-4.79 20.42-19.839 20.42-19.841-20.42-19.841-20.42v-6.53h-12.159a13 13 0 0 0 -13 13s23 9.12 31.279 34.11h27.45c8.271-24.99 31.271-34.11 31.271-34.11a13 13 0 0 0 -13-13z" fill="#fb9700"/><path d="m90.5 62.052-.719-.307h-51.564l-.719.307a5 5 0 0 0 -3.04 4.6v7.237a44.624 44.624 0 0 0 59.084 0v-7.237a5 5 0 0 0 -3.042-4.6z" fill="#c5e2f9"/><circle cx="64" cy="40.444" fill="#def6ff" r="33.444"/><path d="m64 21.707a49.225 49.225 0 0 0 -21.964 5.234 25.783 25.783 0 0 0 0 27.007 48.7 48.7 0 0 0 43.929 0 25.783 25.783 0 0 0 0-27.007 49.226 49.226 0 0 0 -21.965-5.234z" fill="#75e1f7"/></g></svg>