<svg height="512" viewBox="0 0 128 128" width="512" xmlns="http://www.w3.org/2000/svg"><g><path d="m51.773 7h24.454v6.8h-24.454z" fill="#fb9700"/><path d="m34.601 77.218-13.601 13.6v30.182h86v-30.182l-13.601-13.6z" fill="#75e1f7"/><rect fill="#4d5e80" height="97.062" rx="5" width="58.799" x="34.601" y="13.8"/><path d="m44.659 48.501 8.199 4.383 2.629 10.706h17.026l2.629-10.706 8.199-4.383v-24.642h-38.682z" fill="#def6ff"/><path d="m56.125 79.382h15.749v9.272h-15.749z" fill="#fb9700"/><circle cx="64" cy="37.747" fill="#ffd92e" r="6.658"/><path d="m71.862 45.5-6.63-1.212h-2.464l-6.63 1.212a4 4 0 0 0 -3.28 3.935v3.447l2.629 10.708h17.026l2.629-10.706v-3.447a4 4 0 0 0 -3.28-3.937z" fill="#fcbe00"/></g></svg>