<svg height="512" viewBox="0 0 128 128" width="512" xmlns="http://www.w3.org/2000/svg"><g><g><path d="m16 38.435h96v82.565h-96z" fill="#fb9700"/><path d="m16 38.435h96v19.711h-96z" fill="#f47400"/><path d="m76.206 38.435h-24.412l-7.74 15.106-4.664 4.605v11.504l12.404-5.65h24.412l12.404 5.65v-11.504l-4.664-4.605z" fill="#4d5e80"/><path d="m60.071 70.043c-4.046 7.818 3.929 12.719 3.929 12.719s7.975-4.9 3.929-12.719z" fill="#ffd92e"/><path d="m85.08 101.636h16.501v8.945h-16.501z" fill="#def6ff"/><path d="m57.347 70.043h13.306l2.169-6.043h-17.644z" fill="#4d5e80"/><path d="m64 7s-12.206 5.041-12.206 26v31h24.412v-31c0-20.959-12.206-26-12.206-26z" fill="#def6ff"/><g fill="#75e1f7"><circle cx="64" cy="44.763" r="6.001"/><path d="m64.005 7s-9.21 3.8-11.63 18.53h23.25c-2.42-14.73-11.62-18.53-11.62-18.53z"/></g></g><g fill="#75e1f7"><path d="m64 88.217a1.75 1.75 0 0 0 -1.75 1.75v6a1.75 1.75 0 0 0 3.5 0v-6a1.75 1.75 0 0 0 -1.75-1.75z"/><path d="m79.522 71.832a1.751 1.751 0 0 0 -1.75 1.75v6a1.75 1.75 0 0 0 3.5 0v-6a1.75 1.75 0 0 0 -1.75-1.75z"/><path d="m48.477 71.832a1.751 1.751 0 0 0 -1.75 1.75v6a1.75 1.75 0 0 0 3.5 0v-6a1.751 1.751 0 0 0 -1.75-1.75z"/></g></g></svg>