<svg width="96" height="28" viewBox="0 0 96 28" fill="none" xmlns="http://www.w3.org/2000/svg">
<g filter="url(#filter0_d_1_44)">
<path d="M7.29297 19H10.3164V4.63281H15.5312V2.08984H2.08984V4.63281H7.29297V19ZM18.707 23.5C21.543 23.5 23.0078 22.4805 24.1094 19.2695L28.7031 6.19141H25.6328L22.6562 16.1992H22.4336L19.4453 6.19141H16.2578L20.8398 19.0117L20.6875 19.5977C20.3711 20.7578 19.6562 21.25 18.4609 21.25C18.1562 21.25 17.8281 21.2383 17.5938 21.2148V23.4531C17.9453 23.4883 18.3555 23.5 18.707 23.5ZM31.2109 23.2539H34.1289V16.9609H34.3281C34.9961 18.3438 36.4609 19.2109 38.2188 19.2109C41.4648 19.2109 43.4805 16.6914 43.4805 12.6133V12.5898C43.4805 8.53516 41.4297 5.98047 38.2188 5.98047C36.4258 5.98047 35.0312 6.80078 34.3281 8.19531H34.1289V6.19141H31.2109V23.2539ZM37.3047 16.75C35.3242 16.75 34.0938 15.168 34.0938 12.6016V12.5781C34.0938 10.0117 35.3242 8.44141 37.3047 8.44141C39.2969 8.44141 40.5039 10.0117 40.5039 12.5898V12.6133C40.5039 15.1797 39.2969 16.75 37.3047 16.75ZM47.9219 4.04688C48.8711 4.04688 49.6562 3.28516 49.6562 2.32422C49.6562 1.375 48.8711 0.601562 47.9219 0.601562C46.9609 0.601562 46.1758 1.375 46.1758 2.32422C46.1758 3.28516 46.9609 4.04688 47.9219 4.04688ZM46.457 19H49.375V6.19141H46.457V19ZM53.2656 19H56.2891V13.4102H60.0156C63.4492 13.4102 65.7695 11.1367 65.7695 7.76172V7.73828C65.7695 4.35156 63.4492 2.08984 60.0156 2.08984H53.2656V19ZM59.2773 4.5625C61.4453 4.5625 62.7109 5.72266 62.7109 7.75V7.77344C62.7109 9.80078 61.4453 10.9727 59.2773 10.9727H56.2891V4.5625H59.2773ZM71.8281 19.2109C73.5156 19.2109 74.875 18.4844 75.5781 17.2422H75.7773V19H78.6602V10.2461C78.6602 7.53906 76.8086 5.94531 73.5156 5.94531C70.4688 5.94531 68.4062 7.375 68.125 9.53125L68.1133 9.63672H70.8672L70.8789 9.58984C71.1719 8.74609 72.0391 8.26562 73.375 8.26562C74.9453 8.26562 75.7773 8.96875 75.7773 10.2461V11.3477L72.4844 11.5469C69.3672 11.7344 67.6211 13.0703 67.6211 15.3555V15.3789C67.6211 17.7109 69.3906 19.2109 71.8281 19.2109ZM70.5039 15.2383V15.2148C70.5039 14.1602 71.2656 13.5625 72.8945 13.457L75.7773 13.2695V14.3008C75.7773 15.8242 74.4766 16.9727 72.7188 16.9727C71.4297 16.9727 70.5039 16.3281 70.5039 15.2383ZM83.1367 23.5C85.9727 23.5 87.4375 22.4805 88.5391 19.2695L93.1328 6.19141H90.0625L87.0859 16.1992H86.8633L83.875 6.19141H80.6875L85.2695 19.0117L85.1172 19.5977C84.8008 20.7578 84.0859 21.25 82.8906 21.25C82.5859 21.25 82.2578 21.2383 82.0234 21.2148V23.4531C82.375 23.4883 82.7852 23.5 83.1367 23.5Z" fill="white"/>
</g>
<defs>
<filter id="filter0_d_1_44" x="0.0898438" y="0.601562" width="95.043" height="26.8984" filterUnits="userSpaceOnUse" color-interpolation-filters="sRGB">
<feFlood flood-opacity="0" result="BackgroundImageFix"/>
<feColorMatrix in="SourceAlpha" type="matrix" values="0 0 0 0 0 0 0 0 0 0 0 0 0 0 0 0 0 0 127 0" result="hardAlpha"/>
<feOffset dy="2"/>
<feGaussianBlur stdDeviation="1"/>
<feColorMatrix type="matrix" values="0 0 0 0 0 0 0 0 0 0 0 0 0 0 0 0 0 0 0.5 0"/>
<feBlend mode="normal" in2="BackgroundImageFix" result="effect1_dropShadow_1_44"/>
<feBlend mode="normal" in="SourceGraphic" in2="effect1_dropShadow_1_44" result="shape"/>
</filter>
</defs>
</svg>
