<svg width="35" height="35" viewBox="0 0 35 35" fill="none" xmlns="http://www.w3.org/2000/svg">
<rect width="34.2857" height="34.2857" rx="17.1429" fill="white"/>
<path d="M24.8217 9.43674C22.9839 7.54485 20.4433 6.51782 17.8488 6.51782C12.3352 6.51782 7.90281 11.0043 7.95686 16.4638C7.95686 18.1935 8.44335 19.8692 9.25416 21.3827L7.84875 26.5178L13.092 25.1665C14.5515 25.9773 16.1731 26.3557 17.7947 26.3557C23.2542 26.3557 27.6866 21.8692 27.6866 16.4097C27.6866 13.7611 26.6596 11.2746 24.8217 9.43674ZM17.8488 24.68C16.3893 24.68 14.9298 24.3016 13.6866 23.5449L13.3623 23.3827L10.2271 24.1935L11.0379 21.1124L10.8217 20.7881C8.44335 16.9503 9.57848 11.8692 13.4704 9.4908C17.3623 7.11242 22.3893 8.24755 24.7677 12.1394C27.1461 16.0313 26.0109 21.0584 22.119 23.4367C20.8758 24.2476 19.3623 24.68 17.8488 24.68ZM22.6055 18.68L22.0109 18.4097C22.0109 18.4097 21.1461 18.0313 20.6055 17.7611C20.5515 17.7611 20.4974 17.707 20.4433 17.707C20.2812 17.707 20.1731 17.7611 20.065 17.8151C20.065 17.8151 20.0109 17.8692 19.2542 18.734C19.2001 18.8421 19.092 18.8962 18.9839 18.8962H18.9298C18.8758 18.8962 18.7677 18.8421 18.7136 18.7881L18.4434 18.68C17.8488 18.4097 17.3082 18.0854 16.8758 17.653C16.7677 17.5449 16.6055 17.4367 16.4974 17.3286C16.119 16.9503 15.7406 16.5178 15.4704 16.0313L15.4163 15.9232C15.3623 15.8692 15.3623 15.8151 15.3082 15.707C15.3082 15.5989 15.3082 15.4908 15.3623 15.4367C15.3623 15.4367 15.5785 15.1665 15.7406 15.0043C15.8488 14.8962 15.9028 14.734 16.0109 14.6259C16.119 14.4638 16.1731 14.2476 16.119 14.0854C16.065 13.8151 15.4163 12.3557 15.2542 12.0313C15.1461 11.8692 15.0379 11.8151 14.8758 11.7611H14.7136C14.6055 11.7611 14.4433 11.7611 14.2812 11.7611C14.1731 11.7611 14.065 11.8151 13.9569 11.8151L13.9028 11.8692C13.7947 11.9232 13.6866 12.0313 13.5785 12.0854C13.4704 12.1935 13.4163 12.3016 13.3082 12.4097C12.9298 12.8962 12.7136 13.4908 12.7136 14.0854C12.7136 14.5178 12.8217 14.9503 12.9839 15.3286L13.0379 15.4908C13.5244 16.5178 14.1731 17.4367 15.0379 18.2476L15.2542 18.4638C15.4163 18.6259 15.5785 18.734 15.6866 18.8962C16.8217 19.8692 18.119 20.5719 19.5785 20.9503C19.7406 21.0043 19.9569 21.0043 20.119 21.0584C20.2812 21.0584 20.4974 21.0584 20.6596 21.0584C20.9298 21.0584 21.2542 20.9503 21.4704 20.8421C21.6325 20.734 21.7406 20.734 21.8488 20.6259L21.9569 20.5178C22.065 20.4097 22.1731 20.3557 22.2812 20.2476C22.3893 20.1394 22.4974 20.0313 22.5515 19.9232C22.6596 19.707 22.7136 19.4367 22.7677 19.1665C22.7677 19.0584 22.7677 18.8962 22.7677 18.7881C22.7677 18.7881 22.7136 18.734 22.6055 18.68Z" fill="#151027"/>
</svg>
