<svg width="34" height="34" viewBox="0 0 34 34" fill="none" xmlns="http://www.w3.org/2000/svg">
<rect width="34" height="34" rx="17" fill="#151027"/>
<path d="M26.4385 25.0215C25.3229 24.9949 24.2338 24.9949 23.1182 25.0215C22.8791 25.0215 22.826 24.9683 22.826 24.7293C22.826 22.7637 22.826 20.7715 22.826 18.8058C22.826 18.3543 22.7994 17.9027 22.6666 17.4777C22.2682 16.0965 20.6744 15.5918 19.5322 16.5215C18.9213 16.9996 18.6822 17.6637 18.6822 18.4605C18.6822 20.3199 18.6822 22.1793 18.6822 24.0387C18.6822 24.2777 18.6557 24.5168 18.6822 24.7824C18.7088 24.9949 18.6025 25.048 18.4166 25.0215C17.2744 25.0215 16.1588 25.0215 15.0166 25.0215C14.8041 25.0215 14.751 24.9683 14.751 24.7558C14.7775 23.0824 14.7775 21.409 14.7775 19.709C14.7775 17.6371 14.7775 15.5652 14.751 13.5199C14.751 13.2808 14.8041 13.2277 15.0166 13.2277C16.1588 13.2277 17.2744 13.2277 18.4166 13.2277C18.6291 13.2277 18.6822 13.2808 18.6822 13.4933C18.6822 13.9183 18.6822 14.3433 18.6822 14.848C18.7619 14.7683 18.7885 14.7418 18.815 14.7152C19.851 13.2011 21.3119 12.7761 23.0385 13.0418C25.0307 13.3605 26.3057 14.7418 26.6244 16.8668C26.7041 17.3715 26.7307 17.8762 26.7307 18.3808C26.7307 20.5058 26.7307 22.6043 26.7307 24.7293C26.7307 24.9418 26.6775 25.0215 26.4385 25.0215Z" fill="white"/>
<path d="M12.626 19.1254C12.626 20.9848 12.626 22.8441 12.626 24.7035C12.626 24.9426 12.5729 25.0223 12.3338 25.0223C11.2182 24.9957 10.1026 25.0223 8.98694 25.0223C8.77444 25.0223 8.72131 24.9691 8.72131 24.7566C8.72131 21.0113 8.72131 17.2395 8.72131 13.4941C8.72131 13.3082 8.77444 13.2285 8.98694 13.2285C10.1291 13.2285 11.2713 13.2285 12.4135 13.2285C12.6526 13.2285 12.6791 13.3082 12.6791 13.5207C12.626 15.3801 12.626 17.2395 12.626 19.1254Z" fill="white"/>
<path d="M12.812 10.1469C12.5464 11.2094 11.4573 11.8204 10.2089 11.6079C8.88073 11.3954 8.13698 10.0938 8.61511 8.81883C8.93386 8.02195 9.70417 7.54383 10.687 7.57039C12.1745 7.54383 13.1573 8.73914 12.812 10.1469Z" fill="white"/>
</svg>
