<svg width="35" height="35" viewBox="0 0 35 35" fill="none" xmlns="http://www.w3.org/2000/svg">
<rect width="34.2857" height="34.2857" rx="17.1429" fill="#151027"/>
<path d="M24.8217 9.4365C22.9839 7.54461 20.4433 6.51758 17.8488 6.51758C12.3352 6.51758 7.90281 11.0041 7.95686 16.4635C7.95686 18.1933 8.44335 19.8689 9.25416 21.3824L7.84875 26.5176L13.092 25.1662C14.5515 25.977 16.1731 26.3554 17.7947 26.3554C23.2542 26.3554 27.6866 21.8689 27.6866 16.4095C27.6866 13.7608 26.6596 11.2743 24.8217 9.4365ZM17.8488 24.6797C16.3893 24.6797 14.9298 24.3014 13.6866 23.5446L13.3623 23.3824L10.2271 24.1933L11.0379 21.1122L10.8217 20.7878C8.44335 16.95 9.57848 11.8689 13.4704 9.49055C17.3623 7.11217 22.3893 8.24731 24.7677 12.1392C27.1461 16.0311 26.0109 21.0581 22.119 23.4365C20.8758 24.2473 19.3623 24.6797 17.8488 24.6797ZM22.6055 18.6797L22.0109 18.4095C22.0109 18.4095 21.1461 18.0311 20.6055 17.7608C20.5515 17.7608 20.4974 17.7068 20.4433 17.7068C20.2812 17.7068 20.1731 17.7608 20.065 17.8149C20.065 17.8149 20.0109 17.8689 19.2542 18.7338C19.2001 18.8419 19.092 18.896 18.9839 18.896H18.9298C18.8758 18.896 18.7677 18.8419 18.7136 18.7878L18.4434 18.6797C17.8488 18.4095 17.3082 18.0851 16.8758 17.6527C16.7677 17.5446 16.6055 17.4365 16.4974 17.3284C16.119 16.95 15.7406 16.5176 15.4704 16.0311L15.4163 15.923C15.3623 15.8689 15.3623 15.8149 15.3082 15.7068C15.3082 15.5987 15.3082 15.4906 15.3623 15.4365C15.3623 15.4365 15.5785 15.1662 15.7406 15.0041C15.8488 14.896 15.9028 14.7338 16.0109 14.6257C16.119 14.4635 16.1731 14.2473 16.119 14.0851C16.065 13.8149 15.4163 12.3554 15.2542 12.0311C15.1461 11.8689 15.0379 11.8149 14.8758 11.7608H14.7136C14.6055 11.7608 14.4433 11.7608 14.2812 11.7608C14.1731 11.7608 14.065 11.8149 13.9569 11.8149L13.9028 11.8689C13.7947 11.923 13.6866 12.0311 13.5785 12.0851C13.4704 12.1933 13.4163 12.3014 13.3082 12.4095C12.9298 12.896 12.7136 13.4906 12.7136 14.0851C12.7136 14.5176 12.8217 14.95 12.9839 15.3284L13.0379 15.4906C13.5244 16.5176 14.1731 17.4365 15.0379 18.2473L15.2542 18.4635C15.4163 18.6257 15.5785 18.7338 15.6866 18.896C16.8217 19.8689 18.119 20.5716 19.5785 20.95C19.7406 21.0041 19.9569 21.0041 20.119 21.0581C20.2812 21.0581 20.4974 21.0581 20.6596 21.0581C20.9298 21.0581 21.2542 20.95 21.4704 20.8419C21.6325 20.7338 21.7406 20.7338 21.8488 20.6257L21.9569 20.5176C22.065 20.4095 22.1731 20.3554 22.2812 20.2473C22.3893 20.1392 22.4974 20.0311 22.5515 19.923C22.6596 19.7068 22.7136 19.4365 22.7677 19.1662C22.7677 19.0581 22.7677 18.896 22.7677 18.7878C22.7677 18.7878 22.7136 18.7338 22.6055 18.6797Z" fill="white"/>
</svg>
