<svg width="168" height="39" viewBox="0 0 168 39" fill="none" xmlns="http://www.w3.org/2000/svg">
<path d="M62.9005 11.0184H64.8962V22.5612C64.8962 23.5992 64.759 24.4972 64.4846 25.2553C64.2101 26.0133 63.8193 26.6354 63.3121 27.1214C62.805 27.6075 62.1936 27.9659 61.4785 28.1965C60.7634 28.4274 59.9735 28.5427 59.1086 28.5427C57.0464 28.5427 55.4914 28.0813 54.4436 27.1585C53.3959 26.2357 52.8721 24.8352 52.8721 22.9565V11.0184H54.9426V21.9926C54.9426 22.8659 55.0299 23.6033 55.2045 24.2049C55.3791 24.8062 55.6411 25.2924 55.9902 25.663C56.3396 26.0338 56.7762 26.3015 57.3 26.4665C57.8238 26.6312 58.4352 26.7136 59.1336 26.7136C60.4807 26.7136 61.4454 26.347 62.0273 25.6136C62.6095 24.8804 62.9005 23.6735 62.9005 21.9926V11.0184V11.0184ZM75.6106 16.9998L74.2636 14.5034H74.1638L74.4132 16.9998V28.3202H72.4675V10.7465H73.5651L81.9221 22.2893L83.2194 24.6622H83.344L83.0696 22.2893V11.0184H85.0155V28.5921H83.9178L75.6106 16.9998ZM93.061 11.0184H95.1315V28.3202H93.061V11.0184V11.0184ZM107.717 22.9071L108.316 25.5271H108.341L108.989 22.8579L113.205 11.0184H115.276L108.665 28.5921H107.742L101.006 11.0184H103.277L107.717 22.9071V22.9071ZM120.677 11.0184H130.181V12.8475H122.747V18.5076H129.557V20.3367H122.747V26.4911H130.306V28.3202H120.677V11.0184V11.0184ZM137.378 11.1914C138.01 11.076 138.738 10.9854 139.561 10.9194C140.384 10.8536 141.137 10.8206 141.819 10.8206C142.584 10.8206 143.312 10.903 144.002 11.0677C144.692 11.2325 145.299 11.5044 145.823 11.8834C146.346 12.2624 146.767 12.7569 147.082 13.3665C147.398 13.9761 147.556 14.7176 147.556 15.591C147.556 16.9421 147.182 18.0379 146.434 18.8784C145.685 19.7186 144.738 20.279 143.59 20.5591L144.787 21.4736L149.128 28.3202H146.708L141.894 20.8557L139.449 20.4849V28.3202H137.378V11.1914V11.1914ZM141.869 12.6002C141.652 12.6002 141.428 12.6002 141.195 12.6002C140.962 12.6002 140.738 12.6085 140.521 12.6249C140.305 12.6415 140.102 12.6579 139.91 12.6743C139.719 12.6908 139.565 12.7156 139.449 12.7486V19.1255H141.395C142.542 19.1255 143.49 18.8453 144.238 18.2851C144.987 17.7248 145.361 16.8515 145.361 15.6651C145.361 14.7753 145.053 14.042 144.438 13.4653C143.823 12.8886 142.966 12.6002 141.869 12.6002V12.6002ZM153.731 19.6693C153.731 16.7856 154.346 14.5734 155.577 13.0327C156.807 11.4921 158.562 10.7217 160.841 10.7217C162.071 10.7217 163.135 10.936 164.034 11.3643C164.932 11.7928 165.676 12.3985 166.266 13.1811C166.857 13.9637 167.293 14.9031 167.576 15.9989C167.859 17.0945 168 18.3181 168 19.6693C168 22.5529 167.381 24.765 166.142 26.3057C164.903 27.8464 163.135 28.6169 160.841 28.6169C159.626 28.6169 158.574 28.4025 157.685 27.9742C156.795 27.5458 156.055 26.9402 155.465 26.1575C154.874 25.3748 154.438 24.4355 154.155 23.3397C153.872 22.2439 153.731 21.0205 153.731 19.6693V19.6693ZM155.926 19.6693C155.926 20.6249 156.022 21.5313 156.213 22.3881C156.404 23.2449 156.699 23.9988 157.099 24.6498C157.498 25.3005 158.009 25.8197 158.633 26.2068C159.256 26.5941 159.992 26.7877 160.841 26.7877C162.387 26.7877 163.601 26.2068 164.483 25.0451C165.364 23.8834 165.805 22.0915 165.805 19.6693C165.805 18.73 165.709 17.8278 165.518 16.9628C165.327 16.0976 165.027 15.3397 164.62 14.6888C164.212 14.0378 163.697 13.5188 163.073 13.1316C162.45 12.7444 161.705 12.5508 160.841 12.5508C159.31 12.5508 158.109 13.1316 157.236 14.2932C156.363 15.4551 155.926 17.2471 155.926 19.6693Z" fill="white"/>
<path fill-rule="evenodd" clip-rule="evenodd" d="M25.1946 4.55102L9.92328 13.5885L12.1671 14.9997V26.7153L24.1141 33.5496L36.3783 26.534V25.5882V20.772V15.3627L38.9456 13.8938L23.9803 5.26965L24.7308 4.82564L44.0596 15.9976V19.727C44.2925 19.8166 44.4575 20.0399 44.4575 20.3012C44.4575 20.532 44.329 20.733 44.1386 20.8386L44.3967 21.0591C44.5741 21.2154 44.6116 21.3718 44.6443 21.5689L44.7769 22.5085L44.5965 22.5054L44.45 22.0657L44.5331 22.5089L44.3478 22.5039L44.2576 22.3017L44.2755 22.502L44.0206 22.4956L43.9639 22.2395L43.9456 22.4936L43.5524 22.4833L43.5027 22.2316L43.4834 22.4891L43.3038 22.4877L43.2994 22.1553L43.1682 22.4853L42.8861 22.4787L42.9514 21.703C42.9805 21.3617 43.0665 21.2973 43.1783 21.1603L43.4684 20.8036C43.3094 20.6919 43.2054 20.5085 43.2054 20.3012C43.2054 20.0489 43.3592 19.8323 43.5797 19.7368L43.3887 16.3881L40.669 17.9374V29.5054L24.0712 39L7.0896 29.2859V17.9175L0 13.8623L24.2329 0L49.0693 14.2073L45.4482 16.2787L25.1946 4.55102V4.55102ZM31.4366 15.1452V15.3816V23.7828V23.841L24.2591 27.9468L24.2083 27.9176L24.1576 27.9468L16.9801 23.841V19.5383V15.3816V15.1452L21.7085 12.4405L21.7083 21.1812L24.2083 22.6111L26.7082 21.1812L26.7084 12.4405L31.4366 15.1452Z" fill="white"/>
<path fill-rule="evenodd" clip-rule="evenodd" d="M25.1946 4.55112L9.92318 13.5886L12.1672 14.9996V26.7153L24.1141 33.5496L36.3782 26.5339V25.5882V20.7721V15.3627L38.9456 13.8939L23.9803 5.26965L24.7309 4.82554L44.0596 15.9977V19.727C44.2925 19.8167 44.4576 20.0399 44.4576 20.3012C44.4576 20.532 44.329 20.7329 44.1386 20.8386L44.3967 21.0591C44.5741 21.2154 44.6116 21.3718 44.6443 21.5689L44.777 22.5084L44.5964 22.5054L44.4499 22.0657L44.5331 22.5089L44.3478 22.504L44.2575 22.3017L44.2756 22.5021L44.0205 22.4957L43.9639 22.2396L43.9455 22.4935L43.5524 22.4833L43.5026 22.2316L43.4834 22.4892L43.3039 22.4877L43.2994 22.1552L43.1682 22.4852L42.8861 22.4786L42.9514 21.7029C42.9805 21.3616 43.0664 21.2974 43.1783 21.1604L43.4684 20.8036C43.3093 20.6919 43.2054 20.5086 43.2054 20.3012C43.2054 20.049 43.3592 19.8322 43.5797 19.7368L43.3886 16.3881L40.6689 17.9372V29.5055L24.0712 39L7.0896 29.2858V17.9176L0 13.8622L24.2329 0L49.0693 14.2073L45.4482 16.2788L25.1946 4.55112V4.55112ZM31.4365 15.1452V15.3816V23.7828V23.8409L24.2591 27.9467L24.2083 27.9176L24.1575 27.9467L16.9801 23.8409V19.5384V15.3816V15.1452L21.7084 12.4405L21.7083 21.1811L24.2083 22.6112L26.7082 21.1811L26.7083 12.4405L31.4365 15.1452V15.1452Z" fill="white"/>
<path d="M62.9005 11.0184H64.8962V22.5612C64.8962 23.5992 64.759 24.4972 64.4846 25.2553C64.2101 26.0133 63.8193 26.6354 63.3121 27.1214C62.805 27.6075 62.1936 27.9659 61.4785 28.1965C60.7634 28.4274 59.9735 28.5427 59.1086 28.5427C57.0464 28.5427 55.4914 28.0813 54.4436 27.1585C53.3959 26.2357 52.8721 24.8352 52.8721 22.9565V11.0184H54.9426V21.9926C54.9426 22.8659 55.0299 23.6033 55.2045 24.2049C55.3791 24.8062 55.6411 25.2924 55.9902 25.663C56.3396 26.0338 56.7762 26.3015 57.3 26.4665C57.8238 26.6312 58.4352 26.7136 59.1336 26.7136C60.4807 26.7136 61.4454 26.347 62.0273 25.6136C62.6095 24.8804 62.9005 23.6735 62.9005 21.9926V11.0184V11.0184ZM75.6106 16.9998L74.2636 14.5034H74.1638L74.4132 16.9998V28.3202H72.4675V10.7465H73.5651L81.9221 22.2893L83.2194 24.6622H83.344L83.0696 22.2893V11.0184H85.0155V28.5921H83.9178L75.6106 16.9998ZM93.061 11.0184H95.1315V28.3202H93.061V11.0184V11.0184ZM107.717 22.9071L108.316 25.5271H108.341L108.989 22.8579L113.205 11.0184H115.276L108.665 28.5921H107.742L101.006 11.0184H103.277L107.717 22.9071V22.9071ZM120.677 11.0184H130.181V12.8475H122.747V18.5076H129.557V20.3367H122.747V26.4911H130.306V28.3202H120.677V11.0184V11.0184ZM137.378 11.1914C138.01 11.076 138.738 10.9854 139.561 10.9194C140.384 10.8536 141.137 10.8206 141.819 10.8206C142.584 10.8206 143.312 10.903 144.002 11.0677C144.692 11.2325 145.299 11.5044 145.823 11.8834C146.346 12.2624 146.767 12.7569 147.082 13.3665C147.398 13.9761 147.556 14.7176 147.556 15.591C147.556 16.9421 147.182 18.0379 146.434 18.8784C145.685 19.7186 144.738 20.279 143.59 20.5591L144.787 21.4736L149.128 28.3202H146.708L141.894 20.8557L139.449 20.4849V28.3202H137.378V11.1914V11.1914ZM141.869 12.6002C141.652 12.6002 141.428 12.6002 141.195 12.6002C140.962 12.6002 140.738 12.6085 140.521 12.6249C140.305 12.6415 140.102 12.6579 139.91 12.6743C139.719 12.6908 139.565 12.7156 139.449 12.7486V19.1255H141.395C142.542 19.1255 143.49 18.8453 144.238 18.2851C144.987 17.7248 145.361 16.8515 145.361 15.6651C145.361 14.7753 145.053 14.042 144.438 13.4653C143.823 12.8886 142.966 12.6002 141.869 12.6002V12.6002ZM153.731 19.6693C153.731 16.7856 154.346 14.5734 155.577 13.0327C156.807 11.4921 158.562 10.7217 160.841 10.7217C162.071 10.7217 163.135 10.936 164.034 11.3643C164.932 11.7928 165.676 12.3985 166.266 13.1811C166.857 13.9637 167.293 14.9031 167.576 15.9989C167.859 17.0945 168 18.3181 168 19.6693C168 22.5529 167.381 24.765 166.142 26.3057C164.903 27.8464 163.135 28.6169 160.841 28.6169C159.626 28.6169 158.574 28.4025 157.685 27.9742C156.795 27.5458 156.055 26.9402 155.465 26.1575C154.874 25.3748 154.438 24.4355 154.155 23.3397C153.872 22.2439 153.731 21.0205 153.731 19.6693V19.6693ZM155.926 19.6693C155.926 20.6249 156.022 21.5313 156.213 22.3881C156.404 23.2449 156.699 23.9988 157.099 24.6498C157.498 25.3005 158.009 25.8197 158.633 26.2068C159.256 26.5941 159.992 26.7877 160.841 26.7877C162.387 26.7877 163.601 26.2068 164.483 25.0451C165.364 23.8834 165.805 22.0915 165.805 19.6693C165.805 18.73 165.709 17.8278 165.518 16.9628C165.327 16.0976 165.027 15.3397 164.62 14.6888C164.212 14.0378 163.697 13.5188 163.073 13.1316C162.45 12.7444 161.705 12.5508 160.841 12.5508C159.31 12.5508 158.109 13.1316 157.236 14.2932C156.363 15.4551 155.926 17.2471 155.926 19.6693Z" fill="white"/>
</svg>
