<svg width="155" height="39" viewBox="0 0 155 39" fill="none" xmlns="http://www.w3.org/2000/svg">
<g filter="url(#filter0_d_205_114)">
<path d="M48.604 28H52.2573V10.6396H58.5586V7.56689H42.3169V10.6396H48.604V28ZM62.396 33.4375C65.8228 33.4375 67.5928 32.2056 68.9238 28.3257L74.4746 12.5229H70.7646L67.168 24.6157H66.8989L63.2881 12.5229H59.4365L64.9731 28.0142L64.7891 28.7222C64.4067 30.124 63.543 30.7188 62.0986 30.7188C61.7305 30.7188 61.334 30.7046 61.0508 30.6763V33.3809C61.4756 33.4233 61.9712 33.4375 62.396 33.4375ZM77.5049 33.1401H81.0308V25.5361H81.2715C82.0786 27.207 83.8486 28.2549 85.9727 28.2549C89.895 28.2549 92.3306 25.2104 92.3306 20.2827V20.2544C92.3306 15.355 89.8525 12.2681 85.9727 12.2681C83.8062 12.2681 82.1211 13.2593 81.2715 14.9443H81.0308V12.5229H77.5049V33.1401ZM84.8682 25.2812C82.4751 25.2812 80.9883 23.3696 80.9883 20.2686V20.2402C80.9883 17.1392 82.4751 15.2417 84.8682 15.2417C87.2754 15.2417 88.7339 17.1392 88.7339 20.2544V20.2827C88.7339 23.3838 87.2754 25.2812 84.8682 25.2812ZM97.6973 9.93164C98.8442 9.93164 99.793 9.01123 99.793 7.8501C99.793 6.70312 98.8442 5.76855 97.6973 5.76855C96.5361 5.76855 95.5874 6.70312 95.5874 7.8501C95.5874 9.01123 96.5361 9.93164 97.6973 9.93164ZM95.9272 28H99.4531V12.5229H95.9272V28ZM104.154 28H107.808V21.2456H112.311C116.459 21.2456 119.263 18.4985 119.263 14.4204V14.3921C119.263 10.2998 116.459 7.56689 112.311 7.56689H104.154V28ZM111.418 10.5547C114.038 10.5547 115.567 11.9565 115.567 14.4062V14.4346C115.567 16.8843 114.038 18.3003 111.418 18.3003H107.808V10.5547H111.418ZM126.584 28.2549C128.623 28.2549 130.266 27.377 131.115 25.876H131.356V28H134.839V17.4224C134.839 14.1514 132.602 12.2256 128.623 12.2256C124.941 12.2256 122.449 13.9531 122.109 16.5586L122.095 16.686H125.423L125.437 16.6294C125.791 15.6099 126.839 15.0293 128.453 15.0293C130.351 15.0293 131.356 15.8789 131.356 17.4224V18.7534L127.377 18.9941C123.61 19.2207 121.5 20.835 121.5 23.5962V23.6245C121.5 26.4424 123.639 28.2549 126.584 28.2549ZM124.984 23.4546V23.4263C124.984 22.1519 125.904 21.4297 127.873 21.3022L131.356 21.0757V22.3218C131.356 24.1626 129.784 25.5503 127.66 25.5503C126.103 25.5503 124.984 24.7715 124.984 23.4546ZM140.249 33.4375C143.675 33.4375 145.445 32.2056 146.776 28.3257L152.327 12.5229H148.617L145.021 24.6157H144.751L141.141 12.5229H137.289L142.826 28.0142L142.642 28.7222C142.259 30.124 141.396 30.7188 139.951 30.7188C139.583 30.7188 139.187 30.7046 138.903 30.6763V33.3809C139.328 33.4233 139.824 33.4375 140.249 33.4375Z" fill="white"/>
</g>
<g filter="url(#filter1_d_205_114)">
<path fill-rule="evenodd" clip-rule="evenodd" d="M4.15525 32.5454L10.7599 30.8372C13.0001 32.2061 15.6529 33.0008 18.5004 33C26.5078 33 33 26.7313 33 18.9998C33 13.1247 29.2509 8.09448 23.9372 6.01761L19.5582 13.3665C19.4739 13.5022 19.4739 13.683 19.5582 13.8187C19.6429 13.9543 19.7696 14.0449 19.9386 14.0449H24.8395L13.6856 28.2002L17.5726 18.2507C17.6148 18.115 17.6148 17.9794 17.5303 17.8437C17.4458 17.7533 17.3191 17.6629 17.1923 17.6629H12.8829L18.7966 5.00288C18.698 5.00098 18.5994 5 18.5004 5C10.4918 5 4 11.2684 4 18.9998C4 21.5638 4.71791 23.9652 5.96332 26.0319L4.15525 32.5454Z" fill="white"/>
</g>
<defs>
<filter id="filter0_d_205_114" x="40.3169" y="5.76855" width="114.01" height="31.6689" filterUnits="userSpaceOnUse" color-interpolation-filters="sRGB">
<feFlood flood-opacity="0" result="BackgroundImageFix"/>
<feColorMatrix in="SourceAlpha" type="matrix" values="0 0 0 0 0 0 0 0 0 0 0 0 0 0 0 0 0 0 127 0" result="hardAlpha"/>
<feOffset dy="2"/>
<feGaussianBlur stdDeviation="1"/>
<feColorMatrix type="matrix" values="0 0 0 0 0 0 0 0 0 0 0 0 0 0 0 0 0 0 0.5 0"/>
<feBlend mode="normal" in2="BackgroundImageFix" result="effect1_dropShadow_205_114"/>
<feBlend mode="normal" in="SourceGraphic" in2="effect1_dropShadow_205_114" result="shape"/>
</filter>
<filter id="filter1_d_205_114" x="0" y="3" width="37" height="36" filterUnits="userSpaceOnUse" color-interpolation-filters="sRGB">
<feFlood flood-opacity="0" result="BackgroundImageFix"/>
<feColorMatrix in="SourceAlpha" type="matrix" values="0 0 0 0 0 0 0 0 0 0 0 0 0 0 0 0 0 0 127 0" result="hardAlpha"/>
<feOffset dy="2"/>
<feGaussianBlur stdDeviation="2"/>
<feColorMatrix type="matrix" values="0 0 0 0 0 0 0 0 0 0 0 0 0 0 0 0 0 0 0.36 0"/>
<feBlend mode="normal" in2="BackgroundImageFix" result="effect1_dropShadow_205_114"/>
<feBlend mode="normal" in="SourceGraphic" in2="effect1_dropShadow_205_114" result="shape"/>
</filter>
</defs>
</svg>
